<mxfile host="app.diagrams.net" modified="2022-12-13T14:02:27.995Z" agent="5.0 (Windows NT 10.0; Win64; x64) AppleWebKit/537.36 (KHTML, like Gecko) Chrome/107.0.0.0 Safari/537.36" etag="RMeuFpoQuN71ICFB6UFQ" version="20.6.2" type="github">
  <diagram name="Page-1" id="b5b7bab2-c9e2-2cf4-8b2a-24fd1a2a6d21">
    <mxGraphModel dx="2461" dy="762" grid="1" gridSize="10" guides="1" tooltips="1" connect="1" arrows="1" fold="1" page="1" pageScale="1" pageWidth="827" pageHeight="1169" background="none" math="0" shadow="0">
      <root>
        <mxCell id="0" />
        <mxCell id="1" parent="0" />
        <mxCell id="46xDa2XYxKFNJMSBBlAz-86" style="edgeStyle=orthogonalEdgeStyle;curved=1;rounded=0;orthogonalLoop=1;jettySize=auto;html=1;exitX=1;exitY=0.5;exitDx=0;exitDy=0;entryX=0;entryY=0.5;entryDx=0;entryDy=0;startArrow=none;startFill=0;endArrow=classic;endFill=1;" edge="1" parent="1" source="46xDa2XYxKFNJMSBBlAz-48" target="46xDa2XYxKFNJMSBBlAz-83">
          <mxGeometry relative="1" as="geometry" />
        </mxCell>
        <mxCell id="46xDa2XYxKFNJMSBBlAz-48" value="" style="rounded=1;whiteSpace=wrap;html=1;absoluteArcSize=1;arcSize=14;strokeWidth=2;dashed=1;dashPattern=1 2;glass=0;fillColor=#dae8fc;strokeColor=#6c8ebf;" vertex="1" parent="1">
          <mxGeometry x="250" y="193" width="740" height="327" as="geometry" />
        </mxCell>
        <mxCell id="zQ9i3q9YDAYz2BxAbwR4-49" value="" style="group;fillColor=none;gradientColor=#FFE599;gradientDirection=radial;" parent="1" vertex="1" connectable="0">
          <mxGeometry x="-300" y="669" width="358" height="200" as="geometry" />
        </mxCell>
        <mxCell id="zQ9i3q9YDAYz2BxAbwR4-50" value="" style="rounded=1;whiteSpace=wrap;html=1;absoluteArcSize=1;arcSize=14;strokeWidth=2;shadow=0;dashed=1;dashPattern=1 1;gradientColor=none;" parent="zQ9i3q9YDAYz2BxAbwR4-49" vertex="1">
          <mxGeometry width="358" height="200" as="geometry" />
        </mxCell>
        <mxCell id="zQ9i3q9YDAYz2BxAbwR4-53" value="call dbrouter get&amp;nbsp;&lt;br&gt;mq/redis" style="text;html=1;strokeColor=none;fillColor=default;align=center;verticalAlign=middle;whiteSpace=wrap;rounded=0;shadow=0;dashed=1;dashPattern=1 1;gradientColor=#FFE599;gradientDirection=radial;" parent="zQ9i3q9YDAYz2BxAbwR4-49" vertex="1">
          <mxGeometry x="107.82133637840523" y="139.16349809885932" width="133.72169772661024" height="45.62737642585551" as="geometry" />
        </mxCell>
        <mxCell id="zQ9i3q9YDAYz2BxAbwR4-76" value="" style="rounded=1;whiteSpace=wrap;html=1;absoluteArcSize=1;arcSize=14;strokeWidth=2;shadow=0;dashed=1;dashPattern=1 1;fillColor=none;gradientColor=none;gradientDirection=radial;" parent="zQ9i3q9YDAYz2BxAbwR4-49" vertex="1">
          <mxGeometry x="15.04" y="30" width="314.96" height="90" as="geometry" />
        </mxCell>
        <mxCell id="zQ9i3q9YDAYz2BxAbwR4-78" value="data" style="rounded=1;whiteSpace=wrap;html=1;strokeWidth=2;fillWeight=4;hachureGap=8;hachureAngle=45;fillColor=#dae8fc;sketch=1;strokeColor=#6c8ebf;" parent="zQ9i3q9YDAYz2BxAbwR4-49" vertex="1">
          <mxGeometry x="40.443988439306366" y="46" width="117.51554913294798" height="60" as="geometry" />
        </mxCell>
        <mxCell id="zQ9i3q9YDAYz2BxAbwR4-79" value="business" style="rounded=1;whiteSpace=wrap;html=1;strokeWidth=2;fillWeight=4;hachureGap=8;hachureAngle=45;fillColor=#dae8fc;sketch=1;strokeColor=#6c8ebf;" parent="zQ9i3q9YDAYz2BxAbwR4-49" vertex="1">
          <mxGeometry x="183.00236994219654" y="46" width="120.30248554913295" height="60" as="geometry" />
        </mxCell>
        <mxCell id="zQ9i3q9YDAYz2BxAbwR4-19" style="edgeStyle=orthogonalEdgeStyle;curved=1;rounded=0;orthogonalLoop=1;jettySize=auto;html=1;exitX=0.5;exitY=1;exitDx=0;exitDy=0;entryX=0.5;entryY=0;entryDx=0;entryDy=0;" parent="1" source="zQ9i3q9YDAYz2BxAbwR4-11" target="zQ9i3q9YDAYz2BxAbwR4-100" edge="1">
          <mxGeometry relative="1" as="geometry" />
        </mxCell>
        <mxCell id="zQ9i3q9YDAYz2BxAbwR4-28" value="" style="group" parent="1" vertex="1" connectable="0">
          <mxGeometry x="100" y="194" width="138.42" height="296" as="geometry" />
        </mxCell>
        <mxCell id="zQ9i3q9YDAYz2BxAbwR4-10" value="" style="rounded=1;whiteSpace=wrap;html=1;absoluteArcSize=1;arcSize=14;strokeWidth=2;shadow=0;dashed=1;dashPattern=1 1;gradientColor=none;" parent="zQ9i3q9YDAYz2BxAbwR4-28" vertex="1">
          <mxGeometry x="-1.9873157142857139" width="140.4073157142857" height="296.8977041822097" as="geometry" />
        </mxCell>
        <mxCell id="zQ9i3q9YDAYz2BxAbwR4-5" value="callback" style="rounded=1;whiteSpace=wrap;html=1;strokeWidth=2;fillWeight=4;hachureGap=8;hachureAngle=45;fillColor=#d5e8d4;sketch=1;strokeColor=#82b366;" parent="zQ9i3q9YDAYz2BxAbwR4-28" vertex="1">
          <mxGeometry x="9.936578571428571" y="135.92838919329486" width="114.09762857142857" height="77.84881167044054" as="geometry" />
        </mxCell>
        <mxCell id="zQ9i3q9YDAYz2BxAbwR4-6" value="pre-callback" style="rounded=1;whiteSpace=wrap;html=1;strokeWidth=2;fillWeight=4;hachureGap=8;hachureAngle=45;fillColor=#d5e8d4;sketch=1;strokeColor=#82b366;" parent="zQ9i3q9YDAYz2BxAbwR4-28" vertex="1">
          <mxGeometry x="9.936578571428571" y="33.38592015273908" width="112.87162285714285" height="78.17074732905623" as="geometry" />
        </mxCell>
        <mxCell id="zQ9i3q9YDAYz2BxAbwR4-25" value="CW All Tenant&amp;nbsp;" style="text;html=1;strokeColor=none;fillColor=default;align=center;verticalAlign=middle;whiteSpace=wrap;rounded=0;shadow=0;dashed=1;dashPattern=1 1;gradientColor=#FFE599;gradientDirection=radial;" parent="zQ9i3q9YDAYz2BxAbwR4-28" vertex="1">
          <mxGeometry x="13.659087857142856" y="249.93668995145916" width="105.418365" height="27.163321195699545" as="geometry" />
        </mxCell>
        <mxCell id="zQ9i3q9YDAYz2BxAbwR4-29" value="" style="group;fillColor=none;gradientColor=#FFE599;gradientDirection=radial;" parent="1" vertex="1" connectable="0">
          <mxGeometry x="-250" y="220" width="270" height="170" as="geometry" />
        </mxCell>
        <mxCell id="zQ9i3q9YDAYz2BxAbwR4-11" value="" style="rounded=1;whiteSpace=wrap;html=1;absoluteArcSize=1;arcSize=14;strokeWidth=2;shadow=0;dashed=1;dashPattern=1 1;gradientColor=none;" parent="zQ9i3q9YDAYz2BxAbwR4-29" vertex="1">
          <mxGeometry width="270" height="168.06083650190115" as="geometry" />
        </mxCell>
        <mxCell id="zQ9i3q9YDAYz2BxAbwR4-7" value="client-new-fast" style="rounded=1;whiteSpace=wrap;html=1;strokeWidth=2;fillWeight=4;hachureGap=8;hachureAngle=45;fillColor=#dae8fc;sketch=1;strokeColor=#6c8ebf;" parent="zQ9i3q9YDAYz2BxAbwR4-29" vertex="1">
          <mxGeometry x="13.5" y="25.85551330798479" width="112.53028846153845" height="77.56653992395438" as="geometry" />
        </mxCell>
        <mxCell id="zQ9i3q9YDAYz2BxAbwR4-8" value="client-new-slow" style="rounded=1;whiteSpace=wrap;html=1;strokeWidth=2;fillWeight=4;hachureGap=8;hachureAngle=45;fillColor=#dae8fc;sketch=1;strokeColor=#6c8ebf;" parent="zQ9i3q9YDAYz2BxAbwR4-29" vertex="1">
          <mxGeometry x="137.9466346153846" y="25.85551330798479" width="117.37211538461538" height="77.56653992395438" as="geometry" />
        </mxCell>
        <mxCell id="zQ9i3q9YDAYz2BxAbwR4-27" value="CW New Tenant Init Sync&amp;nbsp;" style="text;html=1;strokeColor=none;fillColor=default;align=center;verticalAlign=middle;whiteSpace=wrap;rounded=0;shadow=0;dashed=1;dashPattern=1 1;gradientColor=#FFE599;gradientDirection=radial;" parent="zQ9i3q9YDAYz2BxAbwR4-29" vertex="1">
          <mxGeometry x="38.942307692307686" y="115.60000000000001" width="194.71153846153845" height="38.78326996197719" as="geometry" />
        </mxCell>
        <mxCell id="zQ9i3q9YDAYz2BxAbwR4-59" value="source db&lt;br&gt;10.10.70.215" style="aspect=fixed;html=1;points=[];align=center;image;fontSize=12;image=img/lib/azure2/databases/Azure_Database_PostgreSQL_Server.svg;shadow=0;dashed=1;dashPattern=1 1;fillColor=#FF3333;gradientColor=none;gradientDirection=radial;" parent="1" vertex="1">
          <mxGeometry x="-150" y="1080" width="135" height="180" as="geometry" />
        </mxCell>
        <mxCell id="zQ9i3q9YDAYz2BxAbwR4-60" value="prod db&lt;br&gt;10.10.70.218" style="aspect=fixed;html=1;points=[];align=center;image;fontSize=12;image=img/lib/azure2/databases/Azure_Database_PostgreSQL_Server.svg;shadow=0;dashed=1;dashPattern=1 1;fillColor=#FF3333;gradientColor=none;gradientDirection=radial;" parent="1" vertex="1">
          <mxGeometry x="400" y="1080" width="135" height="180" as="geometry" />
        </mxCell>
        <mxCell id="zQ9i3q9YDAYz2BxAbwR4-88" value="" style="group;fillColor=none;gradientColor=#FFE599;gradientDirection=radial;" parent="1" vertex="1" connectable="0">
          <mxGeometry x="120" y="800" width="880" height="160" as="geometry" />
        </mxCell>
        <mxCell id="zQ9i3q9YDAYz2BxAbwR4-89" value="" style="rounded=1;whiteSpace=wrap;html=1;absoluteArcSize=1;arcSize=14;strokeWidth=2;shadow=0;dashed=1;dashPattern=1 1;gradientColor=none;" parent="zQ9i3q9YDAYz2BxAbwR4-88" vertex="1">
          <mxGeometry width="880" height="160" as="geometry" />
        </mxCell>
        <mxCell id="zQ9i3q9YDAYz2BxAbwR4-90" value="call dbrouter get&amp;nbsp;&lt;br&gt;mq/redis" style="text;html=1;strokeColor=none;fillColor=default;align=center;verticalAlign=middle;whiteSpace=wrap;rounded=0;shadow=0;dashed=1;dashPattern=1 1;gradientColor=#FFE599;gradientDirection=radial;" parent="zQ9i3q9YDAYz2BxAbwR4-88" vertex="1">
          <mxGeometry x="261.2274827114478" y="109.00433277433712" width="316.83062794469384" height="30.228136882129277" as="geometry" />
        </mxCell>
        <mxCell id="zQ9i3q9YDAYz2BxAbwR4-123" value="" style="group" parent="zQ9i3q9YDAYz2BxAbwR4-88" vertex="1" connectable="0">
          <mxGeometry x="46.103481163567004" y="14.58" width="232.41773962804007" height="75.42" as="geometry" />
        </mxCell>
        <mxCell id="zQ9i3q9YDAYz2BxAbwR4-119" value="" style="rounded=1;whiteSpace=wrap;html=1;absoluteArcSize=1;arcSize=14;strokeWidth=2;shadow=0;dashed=1;dashPattern=1 1;fillColor=none;gradientColor=none;gradientDirection=radial;" parent="zQ9i3q9YDAYz2BxAbwR4-123" vertex="1">
          <mxGeometry x="1.1620886981402003" width="232.41773962804007" height="75.42" as="geometry" />
        </mxCell>
        <mxCell id="zQ9i3q9YDAYz2BxAbwR4-120" value="data" style="rounded=1;whiteSpace=wrap;html=1;strokeWidth=2;fillWeight=4;hachureGap=8;hachureAngle=45;fillColor=#d5e8d4;sketch=1;shadow=0;dashed=1;dashPattern=1 1;strokeColor=#82b366;" parent="zQ9i3q9YDAYz2BxAbwR4-123" vertex="1">
          <mxGeometry x="12.782975679542204" y="12.57" width="92.96709585121603" height="50.28" as="geometry" />
        </mxCell>
        <mxCell id="zQ9i3q9YDAYz2BxAbwR4-122" value="business" style="rounded=1;whiteSpace=wrap;html=1;strokeWidth=2;fillWeight=4;hachureGap=8;hachureAngle=45;fillColor=#d5e8d4;sketch=1;shadow=0;dashed=1;dashPattern=1 1;strokeColor=#82b366;" parent="zQ9i3q9YDAYz2BxAbwR4-123" vertex="1">
          <mxGeometry x="125.50557939914164" y="12.57" width="91.80500715307583" height="50.28" as="geometry" />
        </mxCell>
        <mxCell id="zQ9i3q9YDAYz2BxAbwR4-124" value="" style="group" parent="zQ9i3q9YDAYz2BxAbwR4-88" vertex="1" connectable="0">
          <mxGeometry x="384.4687649022413" y="14.58" width="225.08345255126372" height="75.42" as="geometry" />
        </mxCell>
        <mxCell id="zQ9i3q9YDAYz2BxAbwR4-125" value="" style="rounded=1;whiteSpace=wrap;html=1;absoluteArcSize=1;arcSize=14;strokeWidth=2;shadow=0;dashed=1;dashPattern=1 1;fillColor=none;gradientColor=none;gradientDirection=radial;" parent="zQ9i3q9YDAYz2BxAbwR4-124" vertex="1">
          <mxGeometry width="225.08345255126372" height="75.42" as="geometry" />
        </mxCell>
        <mxCell id="zQ9i3q9YDAYz2BxAbwR4-126" value="data" style="rounded=1;whiteSpace=wrap;html=1;strokeWidth=2;fillWeight=4;hachureGap=8;hachureAngle=45;fillColor=#d5e8d4;sketch=1;shadow=0;dashed=1;dashPattern=1 1;strokeColor=#82b366;" parent="zQ9i3q9YDAYz2BxAbwR4-124" vertex="1">
          <mxGeometry x="11.47925608011445" y="12.569999999999999" width="90.03338102050547" height="50.279999999999994" as="geometry" />
        </mxCell>
        <mxCell id="zQ9i3q9YDAYz2BxAbwR4-127" value="business" style="rounded=1;whiteSpace=wrap;html=1;strokeWidth=2;fillWeight=4;hachureGap=8;hachureAngle=45;fillColor=#d5e8d4;sketch=1;shadow=0;dashed=1;dashPattern=1 1;strokeColor=#82b366;" parent="zQ9i3q9YDAYz2BxAbwR4-124" vertex="1">
          <mxGeometry x="116.14306151645208" y="12.569999999999999" width="88.90796375774917" height="50.279999999999994" as="geometry" />
        </mxCell>
        <mxCell id="46xDa2XYxKFNJMSBBlAz-88" value="" style="group" vertex="1" connectable="0" parent="zQ9i3q9YDAYz2BxAbwR4-88">
          <mxGeometry x="631.0433953266571" y="14.58" width="219.36099189318074" height="75.42" as="geometry" />
        </mxCell>
        <mxCell id="46xDa2XYxKFNJMSBBlAz-89" value="" style="rounded=1;whiteSpace=wrap;html=1;absoluteArcSize=1;arcSize=14;strokeWidth=2;shadow=0;dashed=1;dashPattern=1 1;fillColor=none;gradientColor=none;gradientDirection=radial;" vertex="1" parent="46xDa2XYxKFNJMSBBlAz-88">
          <mxGeometry width="219.36099189318074" height="75.42" as="geometry" />
        </mxCell>
        <mxCell id="46xDa2XYxKFNJMSBBlAz-90" value="data" style="rounded=1;whiteSpace=wrap;html=1;strokeWidth=2;fillWeight=4;hachureGap=8;hachureAngle=45;fillColor=#d5e8d4;sketch=1;shadow=0;dashed=1;dashPattern=1 1;strokeColor=#82b366;" vertex="1" parent="46xDa2XYxKFNJMSBBlAz-88">
          <mxGeometry x="12.064854554124942" y="12.569999999999999" width="87.7443967572723" height="50.279999999999994" as="geometry" />
        </mxCell>
        <mxCell id="46xDa2XYxKFNJMSBBlAz-91" value="business" style="rounded=1;whiteSpace=wrap;html=1;strokeWidth=2;fillWeight=4;hachureGap=8;hachureAngle=45;fillColor=#d5e8d4;sketch=1;shadow=0;dashed=1;dashPattern=1 1;strokeColor=#82b366;" vertex="1" parent="46xDa2XYxKFNJMSBBlAz-88">
          <mxGeometry x="118.45493562231759" y="12.569999999999999" width="86.64759179780638" height="50.279999999999994" as="geometry" />
        </mxCell>
        <mxCell id="zQ9i3q9YDAYz2BxAbwR4-102" value="" style="group" parent="1" vertex="1" connectable="0">
          <mxGeometry x="-168" y="461" width="220" height="139" as="geometry" />
        </mxCell>
        <mxCell id="zQ9i3q9YDAYz2BxAbwR4-100" value="" style="rounded=1;whiteSpace=wrap;html=1;absoluteArcSize=1;arcSize=14;strokeWidth=2;shadow=0;dashed=1;dashPattern=1 1;fillColor=none;gradientColor=none;gradientDirection=radial;" parent="zQ9i3q9YDAYz2BxAbwR4-102" vertex="1">
          <mxGeometry width="220" height="139" as="geometry" />
        </mxCell>
        <mxCell id="zQ9i3q9YDAYz2BxAbwR4-2" value="callback(pre)/new-tenant&lt;br&gt;MQ&lt;br&gt;10.10.70.185:5700" style="strokeWidth=2;html=1;shape=mxgraph.flowchart.direct_data;whiteSpace=wrap;fillColor=#cce5ff;strokeColor=#36393d;" parent="zQ9i3q9YDAYz2BxAbwR4-102" vertex="1">
          <mxGeometry x="20" y="13" width="180" height="77" as="geometry" />
        </mxCell>
        <mxCell id="zQ9i3q9YDAYz2BxAbwR4-101" value="CW Callback / New Tenant Init Sync" style="text;html=1;strokeColor=none;fillColor=default;align=center;verticalAlign=middle;whiteSpace=wrap;rounded=0;shadow=0;dashed=1;dashPattern=1 1;gradientColor=#FFE599;gradientDirection=radial;" parent="zQ9i3q9YDAYz2BxAbwR4-102" vertex="1">
          <mxGeometry x="46.709999999999994" y="99" width="113.29" height="30" as="geometry" />
        </mxCell>
        <mxCell id="zQ9i3q9YDAYz2BxAbwR4-106" style="edgeStyle=orthogonalEdgeStyle;curved=1;rounded=0;orthogonalLoop=1;jettySize=auto;html=1;exitX=0.5;exitY=1;exitDx=0;exitDy=0;" parent="1" source="zQ9i3q9YDAYz2BxAbwR4-100" target="zQ9i3q9YDAYz2BxAbwR4-50" edge="1">
          <mxGeometry relative="1" as="geometry" />
        </mxCell>
        <mxCell id="zQ9i3q9YDAYz2BxAbwR4-143" value="" style="line;strokeWidth=4;direction=south;html=1;perimeter=backbonePerimeter;points=[];outlineConnect=0;shadow=0;dashed=1;dashPattern=1 1;fillColor=none;gradientColor=none;gradientDirection=radial;" parent="1" vertex="1">
          <mxGeometry x="74" y="205" width="10" height="705" as="geometry" />
        </mxCell>
        <mxCell id="46xDa2XYxKFNJMSBBlAz-4" value="" style="group" vertex="1" connectable="0" parent="1">
          <mxGeometry x="120" y="590" width="880" height="160" as="geometry" />
        </mxCell>
        <mxCell id="zQ9i3q9YDAYz2BxAbwR4-107" value="" style="rounded=1;whiteSpace=wrap;html=1;absoluteArcSize=1;arcSize=14;strokeWidth=2;shadow=0;dashed=1;dashPattern=1 1;fillColor=none;gradientColor=none;gradientDirection=radial;" parent="46xDa2XYxKFNJMSBBlAz-4" vertex="1">
          <mxGeometry width="880" height="160" as="geometry" />
        </mxCell>
        <mxCell id="zQ9i3q9YDAYz2BxAbwR4-3" value="CW MQ1&lt;br&gt;10.10.70.200:5690" style="strokeWidth=2;html=1;shape=mxgraph.flowchart.direct_data;whiteSpace=wrap;fillColor=#f9f7ed;strokeColor=#36393d;" parent="46xDa2XYxKFNJMSBBlAz-4" vertex="1">
          <mxGeometry x="43.70526315789474" y="20" width="241.33333333333337" height="70" as="geometry" />
        </mxCell>
        <mxCell id="zQ9i3q9YDAYz2BxAbwR4-133" value="CW Goup1~6 Tenant&lt;br&gt;Count: 5" style="text;html=1;strokeColor=none;fillColor=default;align=center;verticalAlign=middle;whiteSpace=wrap;rounded=0;shadow=0;dashed=1;dashPattern=1 1;gradientColor=#FFE599;gradientDirection=radial;" parent="46xDa2XYxKFNJMSBBlAz-4" vertex="1">
          <mxGeometry x="342.74133333333333" y="120" width="226.66666666666666" height="30" as="geometry" />
        </mxCell>
        <mxCell id="46xDa2XYxKFNJMSBBlAz-49" value="CW MQ2&lt;br&gt;10.10.70.212:5689" style="strokeWidth=2;html=1;shape=mxgraph.flowchart.direct_data;whiteSpace=wrap;fillColor=#f9f7ed;strokeColor=#36393d;" vertex="1" parent="46xDa2XYxKFNJMSBBlAz-4">
          <mxGeometry x="384.484" y="20" width="225.03915789473683" height="70" as="geometry" />
        </mxCell>
        <mxCell id="46xDa2XYxKFNJMSBBlAz-51" value="CW MQ4&lt;br&gt;10.10.70.187:5698" style="strokeWidth=2;html=1;shape=mxgraph.flowchart.direct_data;whiteSpace=wrap;fillColor=#f9f7ed;strokeColor=#36393d;" vertex="1" parent="46xDa2XYxKFNJMSBBlAz-4">
          <mxGeometry x="634.366947368421" y="20" width="213.2656842105263" height="70" as="geometry" />
        </mxCell>
        <mxCell id="46xDa2XYxKFNJMSBBlAz-35" value="" style="group" vertex="1" connectable="0" parent="1">
          <mxGeometry x="502" y="210" width="230" height="286" as="geometry" />
        </mxCell>
        <mxCell id="46xDa2XYxKFNJMSBBlAz-23" value="" style="rounded=1;whiteSpace=wrap;html=1;absoluteArcSize=1;arcSize=14;strokeWidth=2;dashed=1;" vertex="1" parent="46xDa2XYxKFNJMSBBlAz-35">
          <mxGeometry width="230" height="286" as="geometry" />
        </mxCell>
        <mxCell id="46xDa2XYxKFNJMSBBlAz-25" value="" style="rounded=1;whiteSpace=wrap;html=1;absoluteArcSize=1;arcSize=14;strokeWidth=2;shadow=0;dashed=1;dashPattern=1 1;gradientColor=none;movable=1;resizable=1;rotatable=1;deletable=1;editable=1;connectable=1;" vertex="1" parent="46xDa2XYxKFNJMSBBlAz-35">
          <mxGeometry x="10" y="10" width="210" height="130" as="geometry" />
        </mxCell>
        <mxCell id="46xDa2XYxKFNJMSBBlAz-26" value="client-fast" style="rounded=1;whiteSpace=wrap;html=1;strokeWidth=2;fillWeight=4;hachureGap=8;hachureAngle=45;fillColor=#d5e8d4;sketch=1;strokeColor=#82b366;movable=1;resizable=1;rotatable=1;deletable=1;editable=1;connectable=1;" vertex="1" parent="46xDa2XYxKFNJMSBBlAz-35">
          <mxGeometry x="21" y="30.5" width="90" height="60" as="geometry" />
        </mxCell>
        <mxCell id="46xDa2XYxKFNJMSBBlAz-27" value="client-slow" style="rounded=1;whiteSpace=wrap;html=1;strokeWidth=2;fillWeight=4;hachureGap=8;hachureAngle=45;fillColor=#d5e8d4;sketch=1;strokeColor=#82b366;movable=1;resizable=1;rotatable=1;deletable=1;editable=1;connectable=1;" vertex="1" parent="46xDa2XYxKFNJMSBBlAz-35">
          <mxGeometry x="120" y="30.5" width="90" height="60" as="geometry" />
        </mxCell>
        <mxCell id="46xDa2XYxKFNJMSBBlAz-28" value="CW Group3 Tenant&lt;br&gt;Count: 57&amp;nbsp;" style="text;html=1;strokeColor=none;fillColor=default;align=center;verticalAlign=middle;whiteSpace=wrap;rounded=0;shadow=0;dashed=1;dashPattern=1 1;gradientColor=#FFE599;gradientDirection=radial;" vertex="1" parent="46xDa2XYxKFNJMSBBlAz-35">
          <mxGeometry x="55" y="100" width="120" height="30" as="geometry" />
        </mxCell>
        <mxCell id="46xDa2XYxKFNJMSBBlAz-29" value="" style="group" vertex="1" connectable="0" parent="46xDa2XYxKFNJMSBBlAz-35">
          <mxGeometry x="10" y="150" width="210" height="130" as="geometry" />
        </mxCell>
        <mxCell id="46xDa2XYxKFNJMSBBlAz-30" value="" style="rounded=1;whiteSpace=wrap;html=1;absoluteArcSize=1;arcSize=14;strokeWidth=2;shadow=0;dashed=1;dashPattern=1 1;gradientColor=none;movable=1;resizable=1;rotatable=1;deletable=1;editable=1;connectable=1;" vertex="1" parent="46xDa2XYxKFNJMSBBlAz-29">
          <mxGeometry width="210" height="130" as="geometry" />
        </mxCell>
        <mxCell id="46xDa2XYxKFNJMSBBlAz-31" value="client-fast" style="rounded=1;whiteSpace=wrap;html=1;strokeWidth=2;fillWeight=4;hachureGap=8;hachureAngle=45;fillColor=#d5e8d4;sketch=1;strokeColor=#82b366;movable=1;resizable=1;rotatable=1;deletable=1;editable=1;connectable=1;" vertex="1" parent="46xDa2XYxKFNJMSBBlAz-29">
          <mxGeometry x="11" y="20.5" width="90" height="60" as="geometry" />
        </mxCell>
        <mxCell id="46xDa2XYxKFNJMSBBlAz-32" value="client-slow" style="rounded=1;whiteSpace=wrap;html=1;strokeWidth=2;fillWeight=4;hachureGap=8;hachureAngle=45;fillColor=#d5e8d4;sketch=1;strokeColor=#82b366;movable=1;resizable=1;rotatable=1;deletable=1;editable=1;connectable=1;" vertex="1" parent="46xDa2XYxKFNJMSBBlAz-29">
          <mxGeometry x="110" y="20.5" width="90" height="60" as="geometry" />
        </mxCell>
        <mxCell id="46xDa2XYxKFNJMSBBlAz-33" value="CW Group4 Tenant&lt;br&gt;Count: 55&amp;nbsp;" style="text;html=1;strokeColor=none;fillColor=default;align=center;verticalAlign=middle;whiteSpace=wrap;rounded=0;shadow=0;dashed=1;dashPattern=1 1;gradientColor=#FFE599;gradientDirection=radial;" vertex="1" parent="46xDa2XYxKFNJMSBBlAz-29">
          <mxGeometry x="45" y="90" width="120" height="30" as="geometry" />
        </mxCell>
        <mxCell id="46xDa2XYxKFNJMSBBlAz-36" value="" style="group" vertex="1" connectable="0" parent="1">
          <mxGeometry x="263" y="210" width="240" height="286" as="geometry" />
        </mxCell>
        <mxCell id="46xDa2XYxKFNJMSBBlAz-22" value="" style="rounded=1;whiteSpace=wrap;html=1;absoluteArcSize=1;arcSize=14;strokeWidth=2;dashed=1;" vertex="1" parent="46xDa2XYxKFNJMSBBlAz-36">
          <mxGeometry width="230" height="286" as="geometry" />
        </mxCell>
        <mxCell id="zQ9i3q9YDAYz2BxAbwR4-33" value="" style="group" parent="46xDa2XYxKFNJMSBBlAz-36" vertex="1" connectable="0">
          <mxGeometry x="10" y="10" width="230" height="240" as="geometry" />
        </mxCell>
        <mxCell id="zQ9i3q9YDAYz2BxAbwR4-21" value="" style="rounded=1;whiteSpace=wrap;html=1;absoluteArcSize=1;arcSize=14;strokeWidth=2;shadow=0;dashed=1;dashPattern=1 1;gradientColor=none;movable=1;resizable=1;rotatable=1;deletable=1;editable=1;connectable=1;" parent="zQ9i3q9YDAYz2BxAbwR4-33" vertex="1">
          <mxGeometry width="210" height="130" as="geometry" />
        </mxCell>
        <mxCell id="zQ9i3q9YDAYz2BxAbwR4-22" value="client-fast" style="rounded=1;whiteSpace=wrap;html=1;strokeWidth=2;fillWeight=4;hachureGap=8;hachureAngle=45;fillColor=#d5e8d4;sketch=1;strokeColor=#82b366;movable=1;resizable=1;rotatable=1;deletable=1;editable=1;connectable=1;" parent="zQ9i3q9YDAYz2BxAbwR4-33" vertex="1">
          <mxGeometry x="11" y="20.5" width="90" height="60" as="geometry" />
        </mxCell>
        <mxCell id="zQ9i3q9YDAYz2BxAbwR4-30" value="client-slow" style="rounded=1;whiteSpace=wrap;html=1;strokeWidth=2;fillWeight=4;hachureGap=8;hachureAngle=45;fillColor=#d5e8d4;sketch=1;strokeColor=#82b366;movable=1;resizable=1;rotatable=1;deletable=1;editable=1;connectable=1;" parent="zQ9i3q9YDAYz2BxAbwR4-33" vertex="1">
          <mxGeometry x="110" y="20.5" width="90" height="60" as="geometry" />
        </mxCell>
        <mxCell id="zQ9i3q9YDAYz2BxAbwR4-31" value="CW Group1 Tenant&lt;br&gt;Count: 55&amp;nbsp;" style="text;html=1;strokeColor=none;fillColor=default;align=center;verticalAlign=middle;whiteSpace=wrap;rounded=0;shadow=0;dashed=1;dashPattern=1 1;gradientColor=#FFE599;gradientDirection=radial;" parent="zQ9i3q9YDAYz2BxAbwR4-33" vertex="1">
          <mxGeometry x="45" y="90" width="120" height="30" as="geometry" />
        </mxCell>
        <mxCell id="zQ9i3q9YDAYz2BxAbwR4-34" value="" style="group" parent="zQ9i3q9YDAYz2BxAbwR4-33" vertex="1" connectable="0">
          <mxGeometry y="140" width="210" height="130" as="geometry" />
        </mxCell>
        <mxCell id="zQ9i3q9YDAYz2BxAbwR4-35" value="" style="rounded=1;whiteSpace=wrap;html=1;absoluteArcSize=1;arcSize=14;strokeWidth=2;shadow=0;dashed=1;dashPattern=1 1;gradientColor=none;movable=1;resizable=1;rotatable=1;deletable=1;editable=1;connectable=1;" parent="zQ9i3q9YDAYz2BxAbwR4-34" vertex="1">
          <mxGeometry width="210" height="130" as="geometry" />
        </mxCell>
        <mxCell id="zQ9i3q9YDAYz2BxAbwR4-36" value="client-fast" style="rounded=1;whiteSpace=wrap;html=1;strokeWidth=2;fillWeight=4;hachureGap=8;hachureAngle=45;fillColor=#d5e8d4;sketch=1;strokeColor=#82b366;movable=1;resizable=1;rotatable=1;deletable=1;editable=1;connectable=1;" parent="zQ9i3q9YDAYz2BxAbwR4-34" vertex="1">
          <mxGeometry x="11" y="20.5" width="90" height="60" as="geometry" />
        </mxCell>
        <mxCell id="zQ9i3q9YDAYz2BxAbwR4-37" value="client-slow" style="rounded=1;whiteSpace=wrap;html=1;strokeWidth=2;fillWeight=4;hachureGap=8;hachureAngle=45;fillColor=#d5e8d4;sketch=1;strokeColor=#82b366;movable=1;resizable=1;rotatable=1;deletable=1;editable=1;connectable=1;" parent="zQ9i3q9YDAYz2BxAbwR4-34" vertex="1">
          <mxGeometry x="110" y="20.5" width="90" height="60" as="geometry" />
        </mxCell>
        <mxCell id="zQ9i3q9YDAYz2BxAbwR4-38" value="CW Group2 Tenant&lt;br&gt;Count: 51&amp;nbsp;" style="text;html=1;strokeColor=none;fillColor=default;align=center;verticalAlign=middle;whiteSpace=wrap;rounded=0;shadow=0;dashed=1;dashPattern=1 1;gradientColor=#FFE599;gradientDirection=radial;" parent="zQ9i3q9YDAYz2BxAbwR4-34" vertex="1">
          <mxGeometry x="45" y="90" width="120" height="30" as="geometry" />
        </mxCell>
        <mxCell id="46xDa2XYxKFNJMSBBlAz-37" value="" style="group" vertex="1" connectable="0" parent="1">
          <mxGeometry x="746" y="210" width="230" height="286" as="geometry" />
        </mxCell>
        <mxCell id="46xDa2XYxKFNJMSBBlAz-38" value="" style="rounded=1;whiteSpace=wrap;html=1;absoluteArcSize=1;arcSize=14;strokeWidth=2;dashed=1;" vertex="1" parent="46xDa2XYxKFNJMSBBlAz-37">
          <mxGeometry width="230" height="286" as="geometry" />
        </mxCell>
        <mxCell id="46xDa2XYxKFNJMSBBlAz-39" value="" style="rounded=1;whiteSpace=wrap;html=1;absoluteArcSize=1;arcSize=14;strokeWidth=2;shadow=0;dashed=1;dashPattern=1 1;gradientColor=none;movable=1;resizable=1;rotatable=1;deletable=1;editable=1;connectable=1;" vertex="1" parent="46xDa2XYxKFNJMSBBlAz-37">
          <mxGeometry x="10" y="10" width="210" height="130" as="geometry" />
        </mxCell>
        <mxCell id="46xDa2XYxKFNJMSBBlAz-40" value="client-fast" style="rounded=1;whiteSpace=wrap;html=1;strokeWidth=2;fillWeight=4;hachureGap=8;hachureAngle=45;fillColor=#d5e8d4;sketch=1;strokeColor=#82b366;movable=1;resizable=1;rotatable=1;deletable=1;editable=1;connectable=1;" vertex="1" parent="46xDa2XYxKFNJMSBBlAz-37">
          <mxGeometry x="21" y="30.5" width="90" height="60" as="geometry" />
        </mxCell>
        <mxCell id="46xDa2XYxKFNJMSBBlAz-41" value="client-slow" style="rounded=1;whiteSpace=wrap;html=1;strokeWidth=2;fillWeight=4;hachureGap=8;hachureAngle=45;fillColor=#d5e8d4;sketch=1;strokeColor=#82b366;movable=1;resizable=1;rotatable=1;deletable=1;editable=1;connectable=1;" vertex="1" parent="46xDa2XYxKFNJMSBBlAz-37">
          <mxGeometry x="120" y="30.5" width="90" height="60" as="geometry" />
        </mxCell>
        <mxCell id="46xDa2XYxKFNJMSBBlAz-42" value="CW Group5 Tenant&lt;br&gt;Count: 53&amp;nbsp;" style="text;html=1;strokeColor=none;fillColor=default;align=center;verticalAlign=middle;whiteSpace=wrap;rounded=0;shadow=0;dashed=1;dashPattern=1 1;gradientColor=#FFE599;gradientDirection=radial;" vertex="1" parent="46xDa2XYxKFNJMSBBlAz-37">
          <mxGeometry x="55" y="100" width="120" height="30" as="geometry" />
        </mxCell>
        <mxCell id="46xDa2XYxKFNJMSBBlAz-43" value="" style="group" vertex="1" connectable="0" parent="46xDa2XYxKFNJMSBBlAz-37">
          <mxGeometry x="10" y="150" width="210" height="130" as="geometry" />
        </mxCell>
        <mxCell id="46xDa2XYxKFNJMSBBlAz-44" value="" style="rounded=1;whiteSpace=wrap;html=1;absoluteArcSize=1;arcSize=14;strokeWidth=2;shadow=0;dashed=1;dashPattern=1 1;gradientColor=none;movable=1;resizable=1;rotatable=1;deletable=1;editable=1;connectable=1;" vertex="1" parent="46xDa2XYxKFNJMSBBlAz-43">
          <mxGeometry width="210" height="130" as="geometry" />
        </mxCell>
        <mxCell id="46xDa2XYxKFNJMSBBlAz-45" value="client-fast" style="rounded=1;whiteSpace=wrap;html=1;strokeWidth=2;fillWeight=4;hachureGap=8;hachureAngle=45;fillColor=#d5e8d4;sketch=1;strokeColor=#82b366;movable=1;resizable=1;rotatable=1;deletable=1;editable=1;connectable=1;" vertex="1" parent="46xDa2XYxKFNJMSBBlAz-43">
          <mxGeometry x="11" y="20.5" width="90" height="60" as="geometry" />
        </mxCell>
        <mxCell id="46xDa2XYxKFNJMSBBlAz-46" value="client-slow" style="rounded=1;whiteSpace=wrap;html=1;strokeWidth=2;fillWeight=4;hachureGap=8;hachureAngle=45;fillColor=#d5e8d4;sketch=1;strokeColor=#82b366;movable=1;resizable=1;rotatable=1;deletable=1;editable=1;connectable=1;" vertex="1" parent="46xDa2XYxKFNJMSBBlAz-43">
          <mxGeometry x="110" y="20.5" width="90" height="60" as="geometry" />
        </mxCell>
        <mxCell id="46xDa2XYxKFNJMSBBlAz-47" value="CW Group6 Tenant&lt;br&gt;Count: 40&amp;nbsp;" style="text;html=1;strokeColor=none;fillColor=default;align=center;verticalAlign=middle;whiteSpace=wrap;rounded=0;shadow=0;dashed=1;dashPattern=1 1;gradientColor=#FFE599;gradientDirection=radial;" vertex="1" parent="46xDa2XYxKFNJMSBBlAz-43">
          <mxGeometry x="45" y="90" width="120" height="30" as="geometry" />
        </mxCell>
        <mxCell id="46xDa2XYxKFNJMSBBlAz-57" value="" style="group" vertex="1" connectable="0" parent="1">
          <mxGeometry x="-350" y="460" width="163" height="140" as="geometry" />
        </mxCell>
        <mxCell id="46xDa2XYxKFNJMSBBlAz-56" value="" style="rounded=1;whiteSpace=wrap;html=1;absoluteArcSize=1;arcSize=14;strokeWidth=2;shadow=1;glass=0;dashed=1;dashPattern=1 1;" vertex="1" parent="46xDa2XYxKFNJMSBBlAz-57">
          <mxGeometry width="163" height="140" as="geometry" />
        </mxCell>
        <mxCell id="zQ9i3q9YDAYz2BxAbwR4-55" value="group_redis&lt;br&gt;10.10.70.217:6380-1" style="sketch=0;aspect=fixed;html=1;points=[];align=center;image;fontSize=12;image=img/lib/mscae/Cache_Redis_Product.svg;shadow=0;dashed=1;dashPattern=1 1;fillColor=#FF3333;gradientColor=none;gradientDirection=radial;" parent="46xDa2XYxKFNJMSBBlAz-57" vertex="1">
          <mxGeometry x="43" y="25" width="83.33" height="70" as="geometry" />
        </mxCell>
        <mxCell id="46xDa2XYxKFNJMSBBlAz-62" style="edgeStyle=orthogonalEdgeStyle;curved=1;rounded=0;orthogonalLoop=1;jettySize=auto;html=1;exitX=0.5;exitY=0;exitDx=0;exitDy=0;entryX=0.25;entryY=1;entryDx=0;entryDy=0;startArrow=classic;startFill=1;endArrow=none;endFill=0;" edge="1" parent="1" source="46xDa2XYxKFNJMSBBlAz-56" target="zQ9i3q9YDAYz2BxAbwR4-11">
          <mxGeometry relative="1" as="geometry" />
        </mxCell>
        <mxCell id="46xDa2XYxKFNJMSBBlAz-64" style="edgeStyle=orthogonalEdgeStyle;curved=1;rounded=0;orthogonalLoop=1;jettySize=auto;html=1;exitX=0.5;exitY=1;exitDx=0;exitDy=0;entryX=0.5;entryY=0;entryDx=0;entryDy=0;entryPerimeter=0;startArrow=none;startFill=0;endArrow=classic;endFill=1;" edge="1" parent="1" source="zQ9i3q9YDAYz2BxAbwR4-10" target="zQ9i3q9YDAYz2BxAbwR4-3">
          <mxGeometry relative="1" as="geometry" />
        </mxCell>
        <mxCell id="46xDa2XYxKFNJMSBBlAz-65" style="edgeStyle=orthogonalEdgeStyle;curved=1;rounded=0;orthogonalLoop=1;jettySize=auto;html=1;exitX=0.5;exitY=1;exitDx=0;exitDy=0;startArrow=none;startFill=0;endArrow=classic;endFill=1;" edge="1" parent="1" source="46xDa2XYxKFNJMSBBlAz-22" target="zQ9i3q9YDAYz2BxAbwR4-3">
          <mxGeometry relative="1" as="geometry" />
        </mxCell>
        <mxCell id="46xDa2XYxKFNJMSBBlAz-79" style="edgeStyle=orthogonalEdgeStyle;curved=1;rounded=0;orthogonalLoop=1;jettySize=auto;html=1;exitX=0.5;exitY=1;exitDx=0;exitDy=0;startArrow=none;startFill=0;endArrow=classic;endFill=1;" edge="1" parent="1" source="46xDa2XYxKFNJMSBBlAz-38" target="46xDa2XYxKFNJMSBBlAz-51">
          <mxGeometry relative="1" as="geometry" />
        </mxCell>
        <mxCell id="46xDa2XYxKFNJMSBBlAz-80" style="edgeStyle=orthogonalEdgeStyle;curved=1;rounded=0;orthogonalLoop=1;jettySize=auto;html=1;exitX=0.5;exitY=1;exitDx=0;exitDy=0;entryX=0.5;entryY=0;entryDx=0;entryDy=0;entryPerimeter=0;startArrow=none;startFill=0;endArrow=classic;endFill=1;" edge="1" parent="1" source="46xDa2XYxKFNJMSBBlAz-23" target="46xDa2XYxKFNJMSBBlAz-49">
          <mxGeometry relative="1" as="geometry" />
        </mxCell>
        <mxCell id="46xDa2XYxKFNJMSBBlAz-84" value="" style="group" vertex="1" connectable="0" parent="1">
          <mxGeometry x="1028" y="283" width="150" height="148" as="geometry" />
        </mxCell>
        <mxCell id="46xDa2XYxKFNJMSBBlAz-83" value="" style="rounded=1;whiteSpace=wrap;html=1;absoluteArcSize=1;arcSize=14;strokeWidth=2;shadow=0;glass=0;dashed=1;dashPattern=1 1;" vertex="1" parent="46xDa2XYxKFNJMSBBlAz-84">
          <mxGeometry width="150" height="148" as="geometry" />
        </mxCell>
        <mxCell id="46xDa2XYxKFNJMSBBlAz-70" value="group_redis&lt;br&gt;10.10.70.227:6379-8" style="sketch=0;aspect=fixed;html=1;points=[];align=center;image;fontSize=12;image=img/lib/mscae/Cache_Redis_Product.svg;shadow=0;dashed=1;dashPattern=1 1;fillColor=#FF3333;gradientColor=none;gradientDirection=radial;" vertex="1" parent="46xDa2XYxKFNJMSBBlAz-84">
          <mxGeometry x="29.996625766871148" y="24.501428571428562" width="86.90858895705522" height="73.00613496932515" as="geometry" />
        </mxCell>
        <mxCell id="46xDa2XYxKFNJMSBBlAz-93" style="edgeStyle=orthogonalEdgeStyle;curved=1;rounded=0;orthogonalLoop=1;jettySize=auto;html=1;exitX=0.5;exitY=1;exitDx=0;exitDy=0;exitPerimeter=0;startArrow=none;startFill=0;endArrow=classic;endFill=1;" edge="1" parent="1" source="zQ9i3q9YDAYz2BxAbwR4-3" target="zQ9i3q9YDAYz2BxAbwR4-119">
          <mxGeometry relative="1" as="geometry" />
        </mxCell>
        <mxCell id="46xDa2XYxKFNJMSBBlAz-94" style="edgeStyle=orthogonalEdgeStyle;curved=1;rounded=0;orthogonalLoop=1;jettySize=auto;html=1;exitX=0.5;exitY=1;exitDx=0;exitDy=0;exitPerimeter=0;entryX=0.5;entryY=0;entryDx=0;entryDy=0;startArrow=none;startFill=0;endArrow=classic;endFill=1;" edge="1" parent="1" source="46xDa2XYxKFNJMSBBlAz-49" target="zQ9i3q9YDAYz2BxAbwR4-125">
          <mxGeometry relative="1" as="geometry" />
        </mxCell>
        <mxCell id="46xDa2XYxKFNJMSBBlAz-95" style="edgeStyle=orthogonalEdgeStyle;curved=1;rounded=0;orthogonalLoop=1;jettySize=auto;html=1;exitX=0.5;exitY=1;exitDx=0;exitDy=0;exitPerimeter=0;entryX=0.5;entryY=0;entryDx=0;entryDy=0;startArrow=none;startFill=0;endArrow=classic;endFill=1;" edge="1" parent="1" source="46xDa2XYxKFNJMSBBlAz-51" target="46xDa2XYxKFNJMSBBlAz-89">
          <mxGeometry relative="1" as="geometry" />
        </mxCell>
        <mxCell id="46xDa2XYxKFNJMSBBlAz-96" style="edgeStyle=orthogonalEdgeStyle;rounded=0;orthogonalLoop=1;jettySize=auto;html=1;exitX=0.5;exitY=1;exitDx=0;exitDy=0;startArrow=none;startFill=0;endArrow=classic;endFill=1;" edge="1" parent="1" source="zQ9i3q9YDAYz2BxAbwR4-50" target="zQ9i3q9YDAYz2BxAbwR4-59">
          <mxGeometry relative="1" as="geometry">
            <Array as="points">
              <mxPoint x="-144" y="1040" />
              <mxPoint x="-82" y="1040" />
            </Array>
          </mxGeometry>
        </mxCell>
        <mxCell id="46xDa2XYxKFNJMSBBlAz-97" style="edgeStyle=orthogonalEdgeStyle;rounded=0;orthogonalLoop=1;jettySize=auto;html=1;exitX=0.5;exitY=1;exitDx=0;exitDy=0;entryX=0.489;entryY=0.006;entryDx=0;entryDy=0;entryPerimeter=0;startArrow=none;startFill=0;endArrow=classic;endFill=1;" edge="1" parent="1" source="zQ9i3q9YDAYz2BxAbwR4-50" target="zQ9i3q9YDAYz2BxAbwR4-60">
          <mxGeometry relative="1" as="geometry">
            <Array as="points">
              <mxPoint x="-144" y="1040" />
              <mxPoint x="466" y="1040" />
            </Array>
          </mxGeometry>
        </mxCell>
        <mxCell id="46xDa2XYxKFNJMSBBlAz-98" style="edgeStyle=orthogonalEdgeStyle;rounded=0;orthogonalLoop=1;jettySize=auto;html=1;exitX=0.5;exitY=1;exitDx=0;exitDy=0;startArrow=none;startFill=0;endArrow=classic;endFill=1;" edge="1" parent="1" source="zQ9i3q9YDAYz2BxAbwR4-89" target="zQ9i3q9YDAYz2BxAbwR4-59">
          <mxGeometry relative="1" as="geometry">
            <Array as="points">
              <mxPoint x="560" y="1040" />
              <mxPoint x="-82" y="1040" />
            </Array>
          </mxGeometry>
        </mxCell>
        <mxCell id="46xDa2XYxKFNJMSBBlAz-99" style="edgeStyle=orthogonalEdgeStyle;rounded=0;orthogonalLoop=1;jettySize=auto;html=1;exitX=0.5;exitY=1;exitDx=0;exitDy=0;startArrow=none;startFill=0;endArrow=classic;endFill=1;" edge="1" parent="1" source="zQ9i3q9YDAYz2BxAbwR4-89" target="zQ9i3q9YDAYz2BxAbwR4-60">
          <mxGeometry relative="1" as="geometry">
            <Array as="points">
              <mxPoint x="560" y="1040" />
              <mxPoint x="468" y="1040" />
            </Array>
          </mxGeometry>
        </mxCell>
      </root>
    </mxGraphModel>
  </diagram>
</mxfile>
